<?xml version="1.0" encoding="UTF-8" standalone="no"?>
<!-- Generator: Adobe Illustrator 18.0.0, SVG Export Plug-In . SVG Version: 6.00 Build 0)  -->
<!DOCTYPE svg  PUBLIC '-//W3C//DTD SVG 1.1//EN'  'http://www.w3.org/Graphics/SVG/1.1/DTD/svg11.dtd'>
<svg id="Capa_1" xmlns="http://www.w3.org/2000/svg" xml:space="preserve" viewBox="0 155.9 940 555" version="1.1" y="0px" x="0px" xmlns:xlink="http://www.w3.org/1999/xlink" enable-background="new 0 155.9 940 555">
<g opacity=".1">
	<path d="m419.2 552c1.7 6.1 4.2 12.1 7.1 17.4l-21.5 21.7 37 37 21.5-21.5c5.6 2.9 11.3 5.4 17.4 7.1v30.5h52.3v-30.5c6.1-1.7 12.1-4.2 17.4-7.1l21.5 21.5 37-37-21.5-21.5c2.9-5.6 5.4-11.3 7.1-17.4h30.5v-52.3h-30.5c-1.7-6.1-4.2-12.1-7.1-17.4l21.5-21.5-37-37-21.5 21.5c-5.6-2.9-11.3-5.4-17.4-7.1v-30.5h-52.3v30.5c-6.1 1.7-12.1 4.2-17.4 7.1l-21.5-21.5-37 37 21.5 21.5c-2.9 5.6-5.4 11.3-7.1 17.4h-30.5v52.3l30.5-0.2zm42.9-26c0-24.9 20.1-45 45-45s45 20.1 45 45c0 24.9-20.1 45-45 45s-45-20.1-45-45z" fill="#757575"/>
	<path d="m333.5 353.5c1.1 1.9 2.5 3.6 4 5.6l-5.7 9.4 16.1 9.6 5.7-9.4c2.1 0.6 4.4 1 6.7 1.1l2.7 10.7 18.4-4.6-2.7-10.7c1.9-1.1 3.6-2.5 5.6-4l9.4 5.7 9.6-16.1-9.4-5.7c0.6-2.1 1-4.4 1.1-6.7l10.7-2.7-4.6-18.4-10.7 2.7c-1.1-1.9-2.5-3.6-4-5.6l5.7-9.4-16.1-9.6-5.7 9.4c-2.1-0.6-4.4-1-6.7-1.1l-2.7-10.7-18.4 5 2.7 10.7c-1.9 1.1-3.6 2.5-5.6 4l-9.4-5.7-9.6 16.1 9.4 5.7c-0.6 2.1-1 4.4-1.1 6.7l-10.7 2.7 4.6 18.4 10.7-3.1zm12.7-12.6c-2.1-8.6 3.1-17.4 11.7-19.5s17.4 3.1 19.5 11.7-3.1 17.4-11.7 19.5c-8.6 2.1-17.4-3.3-19.5-11.7z" fill="#666"/>
	<path d="m202.3 265c1.7 2.9 3.6 5.6 5.9 8l-8.4 13.8 23.8 14.2 8.4-13.8c3.3 1 6.5 1.1 10 1.3l3.8 15.7 27-6.7-3.8-15.7c2.9-1.7 5.6-3.6 8-5.9l13.8 8.4 14.2-23.8-13.8-8.4c1-3.3 1.1-6.5 1.3-10l15.7-3.8-6.7-27-15.7 3.8c-1.7-2.9-3.6-5.6-5.9-8l8.4-13.8-23.8-14.2-8.4 13.8c-3.3-1-6.5-1.1-10-1.3l-3.8-15.7-27 6.7 3.8 15.7c-2.9 1.7-5.6 3.6-8 5.9l-13.8-8.4-14.2 23.8 13.8 8.4c-1 3.3-1.1 6.5-1.3 10l-15.7 3.8 6.7 27 15.7-3.8zm18.7-19.2c-3.3-12.8 4.6-25.9 17.4-28.9 12.8-3.3 25.9 4.6 28.9 17.4 3.3 12.8-4.6 25.9-17.4 28.9-12.8 3.1-25.8-4.5-28.9-17.4z" fill="#666"/>
	<path d="m828 329.2c1.7 2.9 3.6 5.6 5.9 8l-8.2 13.8 23.8 14.2 8.4-13.8c3.3 1 6.5 1.1 10 1.3l3.8 15.7 27-6.7-3.8-15.7c2.9-1.7 5.6-3.6 8-5.9l13.8 8.4 14.2-23.8-13.8-8.4c1-3.3 1.1-6.5 1.3-10l15.7-3.8-6.7-27-15.7 3.8c-1.7-2.9-3.6-5.6-5.9-8l8.4-13.8-23.8-14.2-8.4 13.8c-3.3-1-6.5-1.1-10-1.3l-3.8-15.7-27 6.7 3.8 15.7c-2.9 1.7-5.6 3.6-8 5.9l-13.8-8.4-14.2 23.8 13.8 8.4c-1 3.3-1.1 6.5-1.3 10l-15.7 3.8 6.7 27 15.5-3.8zm18.8-19.2c-3.3-12.8 4.6-25.9 17.4-28.9 12.8-3.1 25.9 4.6 28.9 17.4 3.3 12.8-4.6 25.9-17.4 28.9-12.8 3.3-25.6-4.5-28.9-17.4z" fill="#666"/>
	<path d="m249.4 478.4c1.5 2.5 3.4 5 5.4 7.3l-7.5 12.5 21.5 13 7.5-12.5c2.9 0.8 5.7 1.1 9 1.3l3.6 14 24.3-6.1-3.6-14c2.5-1.5 5-3.4 7.3-5.4l12.5 7.5 13-21.5-12.5-7.5c0.8-2.9 1.1-5.7 1.3-9l14-3.6-6.1-24.3-14 3.6c-1.5-2.5-3.4-5-5.4-7.3l7.5-12.5-21.5-13-7.5 12.5c-2.9-0.8-5.7-1.1-9-1.3l-3.6-14-24.3 6.1 3.6 14c-2.5 1.5-5 3.4-7.3 5.4l-12.5-7.5-13 21.5 12.5 7.5c-0.8 2.9-1.1 5.7-1.3 9l-14 3.6 6.1 24.3 14-3.6zm16.9-17c-2.9-11.5 4.2-23.2 15.7-26.1s23.2 4.2 26.1 15.7-4.2 23.2-15.7 26.1c-11.6 2.7-23.3-4.2-26.1-15.7z" fill="#757575"/>
	<path d="m750.8 524.3c3.1 3.1 6.6 6 10.3 8.5l-6.2 20.5 35.2 10.6 6.2-20.5c4.4 0 8.9-0.4 13.3-1.2l10.1 18.8 32.4-17.4-10.1-18.8c3.1-3.1 6-6.6 8.5-10.3l20.5 6.2 10.6-35.2-20.5-6.2c0-4.4-0.4-8.9-1.2-13.3l18.8-10.1-17.4-32.4-18.8 10.1c-3.1-3.1-6.6-6-10.3-8.5l6.2-20.5-35.1-10.6-6.2 20.5c-4.4 0-8.9 0.4-13.3 1.2l-10-18.7-32.4 17.4 10.1 18.8c-3.1 3.1-6 6.6-8.5 10.3l-20.5-6.2-10.6 35.2 20.5 6.2c0 4.4 0.4 8.9 1.2 13.3l-18.9 10 17.4 32.4 18.7-10.1zm17.8-30.5c-8.3-15.4-2.5-34.6 12.9-42.9s34.6-2.5 42.9 12.9 2.5 34.6-12.9 42.9c-15.5 8.4-34.5 2.6-42.9-12.9z" fill="#666"/>
	<path stroke="#666" stroke-width="5.1514" stroke-miterlimit="10" d="m486 301c1.7 4.2 4 8.4 6.5 12.1l-13.8 17.4 30.1 23.6 13.8-17.4c4.2 1.7 8.6 3.1 13.2 3.6l2.5 22 37.9-4.2-2.5-21.8c4.2-1.7 8.4-4 12.1-6.5l17.2 13.6 23.8-29.9-17.4-13.8c1.7-4.2 3.1-8.6 3.6-13.2l22-2.5-4.2-37.9-22 2.5c-1.7-4.2-4-8.4-6.5-12.1l13.8-17.4-29.9-23.7-13.8 17.4c-4.2-1.7-8.6-3.1-13.2-3.6l-2.5-22.2-37.9 4.2 2.5 22c-4.2 1.7-8.4 4-12.1 6.5l-17.4-13.8-23.8 30 17.4 13.8c-1.7 4.2-3.1 8.6-3.6 13.2l-22 2.5 4.2 37.9 22-2.3zm29-22.4c-1.9-18 10.9-34.1 28.7-36.2 18-1.9 34.1 10.9 36.2 28.7 1.9 18-10.9 34.1-28.7 36.2s-34.3-10.7-36.2-28.7z" fill="none"/>
	<path stroke="#6D6D6D" stroke-width="5" stroke-miterlimit="10" d="m47.8 640.9c1.1 2.6 2.6 5.2 3.9 7.6l-8.7 10.9 18.6 14.7 8.7-10.9c2.6 1.1 5.4 1.8 8.3 2.4l1.3 13.7 23.6-2.8-1.3-13.7c2.6-1.1 5.2-2.6 7.6-3.9l10.9 8.7 14.7-18.6-10.9-8.7c1.1-2.6 1.8-5.4 2.4-8.3l13.9-1.3-2.8-23.6-13.7 1.3c-1.1-2.6-2.6-5.2-3.9-7.6l8.7-10.9-18.6-14.7-8.7 10.9c-2.6-1.1-5.4-1.8-8.3-2.4l-1.4-13.7-23.7 2.7 1.3 13.7c-2.6 1.1-5.2 2.6-7.6 3.9l-10.9-8.7-14.7 18.6 10.9 8.7c-1.1 2.6-1.8 5.4-2.4 8.3l-13.7 1.3 2.8 23.6 13.7-1.2zm18-14.1c-1.1-11.3 6.7-21.4 18-22.5s21.4 6.7 22.5 18-6.7 21.4-18 22.5c-11.2 1.5-21.4-6.7-22.5-18z" fill="none"/>
	<path stroke="#6D6D6D" stroke-width="5" stroke-miterlimit="10" d="m297 664.7c1.5 2.8 2.5 5.2 4.5 8.2l-9.2 11.7 19.8 16.2 9.2-11.7c2.8 1.2 5.5 1.9 8.9 2.5l1.6 14.9 25.4-2.8-1.6-14.9c2.8-1.5 5.2-2.5 8.2-4.5l11.7 9.2 16.2-19.8-11.7-9.2c1.2-2.8 1.9-5.5 2.5-8.9l14.9-1.6-2.8-25.4-14.9 1.6c-1.5-2.8-2.5-5.2-4.5-8.2l9.2-11.7-19.8-16.2-9.2 11.7c-2.8-1.2-5.5-1.9-8.9-2.5l-1.6-14.9-25.4 2.8 1.6 14.9c-2.8 1.5-5.2 2.5-8.2 4.5l-11.7-9.2-16.2 19.7 11.7 9.2c-1.2 2.8-1.9 5.5-2.5 8.9l-14.9 1.6 2.8 25.4 14.9-1.5zm19.3-15.2c-1.5-12.2 7.3-23.2 19.5-24.3 12.2-1.5 23.2 7.3 24.3 19.5 1.5 12.2-7.3 23.2-19.5 24.3-11.7 1.2-22.6-7.4-24.3-19.5z" fill="none"/>
	<path stroke="#6D6D6D" stroke-width="5" stroke-miterlimit="10" d="m58.6 246.3c1.2 2.3 2 4.3 3.7 6.7l-7.5 9.5 16.2 13.2 7.5-9.5c2.3 1 4.5 1.5 7.3 2l1.3 12.1 20.7-2.3-1.3-12.1c2.3-1.2 4.3-2 6.7-3.7l9.5 7.5 13.2-16.2-9.5-7.5c1-2.3 1.5-4.5 2-7.3l12.1-1.4-2.3-20.7-12.2 1.4c-1.2-2.3-2-4.3-3.7-6.7l7.5-9.5-16-13.2-7.5 9.5c-2.3-1-4.5-1.5-7.3-2l-1.4-12-20.9 2 1.3 12.1c-2.3 1.2-4.3 2-6.7 3.7l-9.5-7.5-13.2 16.2 9.5 7.5c-1 2.3-1.5 4.5-2 7.3l-12.1 1.3 2.3 20.7 12.3-1.1zm15.7-12.2c-1.2-10 5.9-18.9 15.9-19.8 10-1 18.9 5.9 19.8 15.9 1.2 10-5.9 18.9-15.9 19.8-9.7 0.9-18.7-6.4-19.8-15.9z" fill="none"/>
	<path d="m27.3 426.3c1.3 5 3.4 9.6 5.9 14l-17.4 17.4 29.9 29.9 17.4-17.4c4.4 2.5 9 4.2 14 5.9v24.5h42.3v-24.5c5-1.3 9.6-3.4 14-5.9l17.4 17.4 29.9-29.9-17.4-17.4c2.5-4.4 4.2-9 5.9-14h24.5v-42.3h-24.3c-1.3-5-3.4-9.6-5.9-14l17.4-17.4-29.9-29.9-17.4 17.4c-4.4-2.5-9-4.2-14-5.9v-24.8h-42.4v24.5c-5 1.3-9.6 3.4-14 5.9l-17.4-17.4-30.1 30.1 17.4 17.4c-2.5 4.4-4.2 9-5.9 14h-24.4v42.3h24.5v0.1zm34.7-21.3c0-20.1 16.1-36.2 36.2-36.2s36.2 16.1 36.2 36.2-16.1 36.2-36.2 36.2c-19.9 0.3-36.2-16-36.2-36.2z" fill="#757575"/>
	<path d="m673.2 661c1.1 1.9 2.5 3.6 4 5.6l-5.7 9.4 16.1 9.6 5.7-9.4c2.1 0.6 4.4 1 6.7 1.1l2.7 10.7 18.4-4.6-2.7-10.7c1.9-1.1 3.6-2.5 5.6-4l9.4 5.7 9.6-16.1-9.4-5.7c0.6-2.1 1-4.4 1.1-6.7l10.7-2.7-4.6-18.4-10.7 2.7c-1.1-1.9-2.5-3.6-4-5.6l5.7-9.4-16.1-9.6-5.7 9.5c-2.1-0.6-4.4-1-6.7-1.1l-2.7-10.7-18.4 4.6 2.7 10.7c-1.9 1.1-3.6 2.5-5.6 4l-9.4-5.7-9.6 16.1 9.4 5.7c-0.6 2.1-1 4.4-1.1 6.7l-10.7 2.7 4.6 18.4 10.7-2.8zm12.7-12.8c-2.1-8.6 3.1-17.4 11.7-19.5s17.4 3.1 19.5 11.7-3.1 17.4-11.7 19.5c-8.4 2.3-17.4-3.1-19.5-11.7z" fill="#666"/>
	<path d="m700 233c1.3 2.1 2.7 4.2 4.6 6.1l-6.3 10.3 18 10.7 6.3-10.3c2.3 0.6 5 1 7.5 1.1l2.9 11.9 20.3-5.2-2.9-11.9c2.1-1.3 4.2-2.7 6.1-4.6l10.3 6.3 10.7-18-10.3-6.3c0.6-2.3 1-5 1.1-7.5l11.9-2.9-5.2-20.3-11.9 2.9c-1.3-2.1-2.7-4.2-4.6-6.1l6.3-10.3-18-10.7-6.3 10.3c-2.3-0.6-5-1-7.5-1.1l-2.9-11.9-20.3 5.2 2.9 11.9c-2.1 1.3-4.2 2.7-6.1 4.6l-10.3-6.3-10.7 18 10.3 6.3c-0.6 2.3-1 5-1.1 7.5l-11.9 2.9 5.2 20.3 11.9-2.9zm14-14.2c-2.3-9.6 3.3-19.4 13-21.7 9.6-2.3 19.4 3.3 21.7 13 2.3 9.6-3.3 19.4-13 21.7-9.6 2.5-19.4-3.4-21.7-13z" fill="#666"/>
	<path d="m176.1 593.6c1.7 2.7 3.4 5.2 5.7 7.7l-8 13.2 22.6 13.4 8-13.2c3.1 0.8 6.1 1.1 9.4 1.5l3.6 14.9 25.7-6.5-3.6-14.9c2.7-1.7 5.2-3.4 7.7-5.7l13.2 8 13.4-22.6-13.2-8c0.8-3.1 1.1-6.1 1.5-9.4l14.9-3.6-6.5-25.7-14.9 3.6c-1.7-2.7-3.4-5.2-5.7-7.7l8-13.2-22.6-13.4-8 13.2c-3.1-0.8-6.1-1.1-9.4-1.5l-3.6-14.9-25.7 6.5 3.6 14.9c-2.7 1.7-5.2 3.4-7.7 5.7l-13.2-8-13.4 22.6 13.2 8c-0.8 3.1-1.1 6.1-1.5 9.4l-14.9 3.6 6.5 25.7 14.9-3.6zm17.8-17.8c-3.1-12.3 4.2-24.3 16.5-27.4s24.3 4.2 27.4 16.5-4.2 24.3-16.5 27.4c-12 2.9-24.5-4.6-27.4-16.5z" fill="#666"/>
	<path d="m357.3 227.6c1.3 2.1 2.7 4.2 4.6 6.1l-6.3 10.3 18 10.7 6.3-10.3c2.3 0.6 5 1 7.5 1.1l2.9 11.9 20.3-5.2-2.9-11.9c2.1-1.3 4.2-2.7 6.1-4.6l10.3 6.3 10.7-18-10.3-6.3c0.6-2.3 1-5 1.1-7.5l11.9-2.9-5.2-20.3-11.9 2.9c-1.3-2.1-2.7-4.2-4.6-6.1l6.3-10.3-18-10.7-6.3 10.3c-2.3-0.6-5-1-7.5-1.1l-2.9-11.9-20.3 5.2 2.9 11.9c-2.1 1.3-4.2 2.7-6.1 4.6l-10.3-6.3-10.7 18 10.3 6.3c-0.6 2.3-1 5-1.1 7.5l-11.9 3.1 5.2 20.3 11.9-3.1zm14-14.2c-2.3-9.6 3.3-19.4 13-21.7 9.8-2.3 19.4 3.3 21.7 13 2.3 9.6-3.3 19.4-13 21.7-9.7 2.4-19.4-3.6-21.7-13z" fill="#666"/>
	<path stroke="#6D6D6D" stroke-width="5" stroke-miterlimit="10" d="m813.3 649.2c1.3 2.8 2.4 5.2 4.1 7.6l-9 11.2 19.3 15.5 9-11.2c2.8 1.1 5.5 1.9 8.5 2.4l1.5 14.2 24.5-2.8-1.5-14.2c2.8-1.3 5.2-2.4 7.6-4.1l11.2 9 15.5-19.3-11.2-9c1.1-2.8 1.9-5.5 2.4-8.5l14.2-1.5-2.8-24.5-14.2 1.5c-1.3-2.8-2.4-5.2-4.1-7.6l9-11.2-19.3-15.5-9 11.2c-2.8-1.1-5.5-1.9-8.5-2.4l-1.5-14.2-24.5 2.8 1.5 14.2c-2.8 1.3-5.2 2.4-7.6 4.1l-11.2-9-15.5 19.3 11.2 9c-1.1 2.8-1.9 5.5-2.4 8.5l-14.2 1.5 2.8 24.5 14.2-1.5zm18.5-14.5c-1.3-11.7 7-22.1 18.6-23.4s22.1 7 23.4 18.6-7 22.1-18.6 23.4c-11.3 1.3-21.8-7-23.4-18.6z" fill="none"/>
	<path stroke="#6D6D6D" stroke-width="5" stroke-miterlimit="10" d="m657.7 362.7c1.4 2.7 2.5 5.2 4.5 7.8l-9.1 11.4 19.3 15.7 9.1-11.4c2.7 1.2 5.5 1.9 8.5 2.5l1.4 14.4 24.8-2.7-1.4-14.4c2.7-1.4 5.2-2.5 7.8-4.5l11.4 9.1 15.7-19.3-11.4-9.1c1.2-2.7 1.9-5.5 2.5-8.5l14.4-1.4-2.7-24.8-14.4 1.4c-1.4-2.7-2.5-5.2-4.5-7.8l9.1-11.4-19.3-15.7-9.1 11.4c-2.7-1.2-5.5-1.9-8.5-2.5l-1.4-14.4-24.8 2.7 1.4 14.4c-2.7 1.4-5.2 2.5-7.8 4.5l-11.4-9.1-15.8 19.3 11.4 9.1c-1.2 2.7-1.9 5.5-2.5 8.5l-14.4 1.4 2.7 24.8 14.5-1.4zm19.1-14.7c-1.4-11.8 7.2-22.4 19-23.8s22.4 7.2 23.8 19-7.2 22.4-19 23.8c-11.9 1.5-22.4-7.3-23.8-19z" fill="none"/>
	<path d="m437.2 526c0 38.5 31.2 69.9 69.9 69.9s69.9-31.2 69.9-69.9c0-38.5-31.2-69.9-69.9-69.9s-69.9 31.1-69.9 69.9zm24.5 0c0-25.1 20.3-45.4 45.4-45.4s45.4 20.3 45.4 45.4c0 25.1-20.3 45.4-45.4 45.4s-45.4-20.3-45.4-45.4z" fill="#999898"/>
	<path d="m42.1 405c0 31 25.3 56.3 56.3 56.3s56.3-25.3 56.3-56.3-25.3-56.3-56.3-56.3c-31-0.2-56.3 25.3-56.3 56.3zm19.7 0c0-20.3 16.3-36.6 36.6-36.6s36.8 16.5 36.8 36.6-16.3 36.6-36.6 36.6c-20.1 0.2-36.8-16.2-36.8-36.6z" fill="#999898"/>
</g>
</svg>
