<?xml version="1.0" encoding="utf-8"?>
<!-- Generator: Adobe Illustrator 18.0.0, SVG Export Plug-In . SVG Version: 6.00 Build 0)  -->
<!DOCTYPE svg PUBLIC "-//W3C//DTD SVG 1.1//EN" "http://www.w3.org/Graphics/SVG/1.1/DTD/svg11.dtd">
<svg version="1.1" id="Capa_1" xmlns="http://www.w3.org/2000/svg" xmlns:xlink="http://www.w3.org/1999/xlink" x="0px" y="0px"
	 viewBox="0 0 792 612" enable-background="new 0 0 792 612" xml:space="preserve">
<path fill="#9BCA3D" d="M534.6,446.5c0,16.1-13.1,29-29,29H234c-16.1,0-29-13.1-29-29V338c0-16.1,13.1-29,29-29h271.4
	c16.1,0,29,13.1,29,29v108.5H534.6z"/>
<path fill="#8CB22D" d="M485,419.9c0,7.5-11,13.6-24.6,13.6H287.1c-13.6,0-24.6-6.1-24.6-13.6v-55.2c0-7.5,11-13.6,24.6-13.6h173.3
	c13.6,0,24.6,6.1,24.6,13.6V419.9z"/>
<polygon fill="#DEDFE0" points="279.6,50.2 302,124.6 319.8,109.9 "/>
<polygon fill="#DEDFE0" points="459.9,50.2 437.4,124.6 419.8,109.9 "/>
<path fill="#C86A5D" d="M280.8,35.6c-8.2,0-14.7,6.6-14.7,14.7c0,8.2,6.6,14.7,14.7,14.7c8.2,0,14.7-6.6,14.7-14.7
	C295.5,42.2,288.9,35.6,280.8,35.6z"/>
<path fill="#C86A5D" d="M458.7,35.6c-8.2,0-14.7,6.6-14.7,14.7c0,8.2,6.6,14.7,14.7,14.7c8.2,0,14.7-6.6,14.7-14.7
	C473.5,42.2,466.9,35.6,458.7,35.6z"/>
<rect x="285.6" y="264.9" fill="#82A025" width="164.7" height="30.5"/>
<path fill="#9BCA3D" d="M509.5,251.5c0-1.7,0.1-3.6,0.1-5.3c0-84.7-62.6-153.4-139.8-153.4s-139.8,68.6-139.8,153.4
	c0,1.7,0.1,3.6,0.1,5.3H509.5z"/>
<g id="ojos">
	<path fill="#F8F8F8" d="M424.4,182.1c0,30.1-24.4,54.5-54.5,54.5c-30.1,0-54.5-24.4-54.5-54.5s24.4-54.5,54.5-54.5
		C400,127.6,424.4,152,424.4,182.1z"/>
	<path fill="#161921" d="M408.8,182.1c0,21.6-17.6,39.1-39.1,39.1c-21.5,0-39.1-17.6-39.1-39.1s17.6-39.1,39.1-39.1
		C391.4,143,408.8,160.6,408.8,182.1z"/>
	<path id="eye" fill="#90AFC2" d="M381.2,190.4c0,11-8.8,19.8-19.8,19.8c-11,0-19.7-8.8-19.7-19.8c0-11,8.8-19.7,19.7-19.7
		C372.4,170.8,381.2,179.6,381.2,190.4z"/>
</g>
<path fill="#82A025" d="M315,105.2c0,0,46.2,24.7,106.5-1.5C421.5,103.7,368.1,79.2,315,105.2z"/>
<path fill="#E6E7E8" d="M412.1,348.7H653c6.1,0,11,5.5,11,12.3v143.6H401.1V361C401.1,354.2,406,348.7,412.1,348.7z"/>
<rect x="401.1" y="504.6" fill="#BBBDBF" width="262.9" height="14.5"/>
<rect x="558.6" y="507.9" fill="#929497" width="89.5" height="7.5"/>
<rect x="407.5" y="506.8" fill="#929497" width="10.6" height="9.5"/>
<circle fill="#929497" cx="430.5" cy="511.6" r="2.2"/>
<circle fill="#929497" cx="443.9" cy="511.6" r="2.2"/>
<circle fill="#929497" cx="453.8" cy="511.6" r="2.2"/>
<path fill="#90AFC2" d="M683.8,581.5H94.4c-2.4,0-4.4-2-4.4-4.4v-42.5c0-2.4,2-4.4,4.4-4.4h589.4c2.4,0,4.4,2,4.4,4.4v42.5
	C688.1,579.6,686.1,581.5,683.8,581.5z"/>
<path fill="#E6E7E8" d="M392.6,294.1H91.9c-1.1,0-2,0.8-2,1.7v166.5v32.6c0,0.9,0.8,1.7,2,1.7h300.6c1.1,0,2-0.8,2-1.7v-32.6V295.8
	C394.4,294.8,393.6,294.1,392.6,294.1z"/>
<polygon fill="#BBBDBF" points="278.8,526.8 205.7,526.8 214.1,453.5 271.1,453.5 "/>
<path fill="#666666" d="M298.6,527.6c-0.4-3.3-3.2-5.9-6.7-5.9h-99.4c-3.4,0-6.3,2.6-6.7,5.9H298.6z"/>
<g id="_x33_">
	<rect x="23.8" y="51.3" fill="#FFFFFF" width="133.5" height="164.7"/>
	<rect x="37.1" y="81.9" fill="#666666" width="106.7" height="2.4"/>
	<rect x="37.1" y="86" fill="#666666" width="106.7" height="2.4"/>
	<rect x="37.1" y="90.1" fill="#666666" width="106.7" height="2.4"/>
	<rect x="37.1" y="94.3" fill="#666666" width="60.6" height="2.4"/>
	<rect x="37.1" y="116.5" fill="#666666" width="106.7" height="2.4"/>
	<rect x="37.1" y="120.6" fill="#666666" width="106.7" height="2.4"/>
	<rect x="37.1" y="124.7" fill="#666666" width="106.7" height="2.4"/>
	<rect x="37.1" y="128.9" fill="#666666" width="60.6" height="2.4"/>
	<rect x="37.1" y="98.4" fill="#666666" width="106.7" height="2.4"/>
	<rect x="37.1" y="102.5" fill="#666666" width="106.7" height="2.4"/>
	<rect x="37.1" y="106.7" fill="#666666" width="37.4" height="2.4"/>
	<rect x="37.1" y="142.5" fill="#666666" width="106.7" height="2.4"/>
	<rect x="37.1" y="146.6" fill="#666666" width="106.7" height="2.4"/>
	<rect x="37.1" y="150.8" fill="#666666" width="37.4" height="2.4"/>
	<rect x="37.1" y="165.9" fill="#666666" width="106.7" height="2.4"/>
	<rect x="37.1" y="170" fill="#666666" width="37.4" height="2.4"/>
	<path fill="#8EE5D9" d="M143.9,65.7c0,0.9-0.8,1.7-1.7,1.7H38.8c-0.9,0-1.7-0.8-1.7-1.7v-1.8c0-0.9,0.8-1.7,1.7-1.7H142
		c0.9,0,1.7,0.8,1.7,1.7v1.8H143.9z"/>
	<path fill="#8EE5D9" d="M143.9,203.6c0,0.9-0.8,1.7-1.7,1.7H38.8c-0.9,0-1.7-0.8-1.7-1.7v-1.8c0-0.9,0.8-1.7,1.7-1.7H142
		c0.9,0,1.7,0.8,1.7,1.7v1.8H143.9z"/>
	<circle fill="#8BC53F" cx="91.7" cy="80" r="2.6"/>
	<rect x="107.6" y="155.1" fill="#666666" width="15.3" height="1.6"/>
</g>
<g id="_x32_">
	<rect x="81.4" y="71.9" fill="#FFFFFF" width="133.5" height="164.7"/>
	<rect x="81.4" y="71.9" fill="#666666" width="133.5" height="16.1"/>
	<path fill="#F1F1F1" d="M210.1,80.9c0,0.9-0.8,1.7-1.6,1.7h-99c-0.9,0-1.6-0.8-1.6-1.7v-2c0-0.9,0.8-1.7,1.6-1.7h99
		c0.9,0,1.6,0.8,1.6,1.7V80.9z"/>
	<circle fill="#C0272D" cx="86.4" cy="80" r="2.6"/>
	<circle fill="#FAAF3B" cx="94.1" cy="80" r="2.6"/>
	<polyline fill="none" stroke="#666666" stroke-width="6.1" stroke-linecap="round" stroke-miterlimit="10" points="111.2,142.4 
		95.3,158.4 111.8,174.9 	"/>
	<polyline fill="none" stroke="#666666" stroke-width="6.1" stroke-linecap="round" stroke-miterlimit="10" points="184.9,174.9 
		200.9,158.9 184.4,142.4 	"/>
	<rect x="163.4" y="155.1" fill="#666666" width="15.3" height="1.6"/>
	<rect x="137.9" y="155.1" fill="#666666" width="23.1" height="1.6"/>
	<rect x="117.6" y="164.7" fill="#666666" width="15.3" height="1.6"/>
	<rect x="137.9" y="164.7" fill="#666666" width="23.1" height="1.6"/>
	<rect x="117.6" y="160.1" fill="#666666" width="15.3" height="1.6"/>
	<rect x="163.4" y="160.1" fill="#666666" width="15.3" height="1.6"/>
	<rect x="129.3" y="160.1" fill="#666666" width="31.7" height="1.6"/>
</g>
<g id="_x3C_1_x3E_">
	<rect x="574.9" y="142.6" fill="#FFFFFF" width="193.5" height="164.7"/>
	<rect x="594.3" y="191.2" fill="#666666" width="154.7" height="2.4"/>
	<rect x="594.3" y="195.4" fill="#666666" width="154.7" height="2.4"/>
	<rect x="594.3" y="199.5" fill="#666666" width="154.7" height="2.4"/>
	<rect x="594.3" y="203.6" fill="#666666" width="87.9" height="2.4"/>
	<rect x="594.3" y="225.8" fill="#666666" width="154.7" height="2.4"/>
	<rect x="594.3" y="229.9" fill="#666666" width="154.7" height="2.4"/>
	<rect x="594.3" y="234.1" fill="#666666" width="154.7" height="2.4"/>
	<rect x="594.3" y="238.2" fill="#666666" width="87.9" height="2.4"/>
	<rect x="594.3" y="207.9" fill="#666666" width="154.7" height="2.4"/>
	<rect x="594.3" y="211.9" fill="#666666" width="154.7" height="2.4"/>
	<rect x="594.3" y="216" fill="#666666" width="54.3" height="2.4"/>
	<rect x="594.3" y="251.9" fill="#666666" width="154.7" height="2.4"/>
	<rect x="594.3" y="256" fill="#666666" width="154.7" height="2.4"/>
	<rect x="594.3" y="260.1" fill="#666666" width="54.3" height="2.4"/>
	<rect x="594.3" y="275.2" fill="#666666" width="154.7" height="2.4"/>
	<rect x="594.3" y="279.4" fill="#666666" width="54.3" height="2.4"/>
	<path fill="#666666" d="M749,175c0,0.9-1.1,1.7-2.5,1.7H596.8c-1.3,0-2.5-0.8-2.5-1.7v-1.8c0-0.9,1.1-1.7,2.5-1.7h149.8
		c1.3,0,2.5,0.8,2.5,1.7v1.8H749z"/>
	<rect x="574.9" y="142.6" fill="#666666" width="193.5" height="16.1"/>
	<path fill="#F1F1F1" d="M761.6,151.8c0,0.9-1.1,1.7-2.4,1.7H615.8c-1.3,0-2.4-0.8-2.4-1.7v-2c0-0.9,1.1-1.7,2.4-1.7h143.5
		c1.3,0,2.4,0.8,2.4,1.7V151.8z"/>
	<circle fill="#C0272D" cx="579.9" cy="150.7" r="2.6"/>
	<circle fill="#FAAF3B" cx="587.5" cy="150.7" r="2.6"/>
	<circle fill="#8BC53F" cx="595.2" cy="150.7" r="2.6"/>
</g>
<line fill="none" stroke="#000000" stroke-width="2" stroke-miterlimit="10" x1="37.1" y1="248.5" x2="37.1" y2="256.4"/>
<line fill="none" stroke="#000000" stroke-width="2" stroke-miterlimit="10" stroke-dasharray="12.1" x1="37.1" y1="272.4" x2="37.1" y2="328.2"/>
<polyline fill="none" stroke="#000000" stroke-width="2" stroke-miterlimit="10" points="37.1,336.2 37.1,344.1 45,344.1 "/>
<line fill="none" stroke="#000000" stroke-width="2" stroke-miterlimit="10" stroke-dasharray="9.8" x1="57.9" y1="344.1" x2="77.4" y2="344.1"/>
<line fill="none" stroke="#000000" stroke-width="2" stroke-miterlimit="10" x1="83.8" y1="344.1" x2="91.7" y2="344.1"/>
<line fill="none" stroke="#000000" stroke-width="2" stroke-miterlimit="10" stroke-dasharray="12" x1="135.2" y1="248.5" x2="135.2" y2="293.3"/>
<polyline fill="none" stroke="#000000" stroke-width="2" stroke-miterlimit="10" stroke-dasharray="12" points="728.4,325.7 
	728.4,412.6 671.6,412.6 "/>
</svg>
